<?xml version="1.0" standalone="no"?>
<!DOCTYPE svg PUBLIC "-//W3C//DTD SVG 20010904//EN"
 "http://www.w3.org/TR/2001/REC-SVG-20010904/DTD/svg10.dtd">
<svg version="1.0" xmlns="http://www.w3.org/2000/svg"
 width="225.000000pt" height="225.000000pt" viewBox="0 0 225.000000 225.000000"
 preserveAspectRatio="xMidYMid meet">
<metadata>
Created by potrace 1.11, written by Peter Selinger 2001-2013
</metadata>
<g transform="translate(0.000000,225.000000) scale(0.100000,-0.100000)"
fill="#000000" stroke="none">
<path d="M0 1125 l0 -1125 1125 0 1125 0 0 1125 0 1125 -1125 0 -1125 0 0
-1125z m1002 782 c44 -19 99 -90 129 -167 13 -34 24 -93 28 -157 4 -57 10
-105 12 -107 3 -3 23 34 47 82 51 107 102 175 167 224 118 89 252 46 289 -93
20 -79 31 -93 99 -125 108 -52 158 -167 105 -244 -52 -77 -152 -129 -296 -153
l-77 -13 87 -41 c139 -66 218 -154 218 -242 0 -53 -31 -87 -135 -149 -57 -34
-90 -61 -115 -96 -75 -105 -102 -128 -157 -133 -66 -7 -110 14 -169 80 -76 84
-114 179 -127 312 -5 56 -37 -109 -37 -192 1 -100 12 -148 61 -255 29 -62 38
-94 33 -112 -18 -72 -62 -25 -110 117 -33 99 -38 127 -43 242 l-6 130 -38 -52
c-75 -103 -160 -155 -252 -157 -93 -1 -153 54 -174 161 -14 74 -29 95 -97 138
-64 41 -94 85 -94 138 0 58 24 103 69 132 39 24 160 62 261 82 l45 9 -50 26
c-62 32 -138 108 -165 163 -31 64 -27 142 9 192 29 41 53 53 161 85 40 12 49
20 84 79 65 110 136 138 238 96z"/>
</g>
</svg>
