<svg id="Layer_1" data-name="Layer 1" xmlns="http://www.w3.org/2000/svg" viewBox="0 0 1000 1000"><defs><style>.cls-1{fill:#067f1d;}</style></defs><title>shamrock</title><path class="cls-1" d="M474.71,598.63c-1.56,4.24-3.74,8.36-4.58,12.74-6.53,33.93-12.58,67.95-19.2,101.86-7.81,40-29.66,69.06-67.89,84.69-29.58,12.1-69.57,5.49-96.65-10.11-33-19-37.31-56-56.54-85.48-10.68-16.4-26.53-28.69-39.06-43.73-23-27.64-33.83-60.13-23.18-94.86,9-29.44,29.67-51.44,55.54-67.36,18.17-11.18,38.33-14.52,59-15.57,28.77-1.45,57.57-2.28,86.35-3.54a34.14,34.14,0,0,0,15.64-4.14c-24.83-2.49-49.68-4.82-74.48-7.52-34.89-3.8-69.2-9.45-100.66-26.74C153.65,408.45,142.13,345,184.89,298c13.46-14.82,29.92-26.91,44.81-40.46A160.72,160.72,0,0,0,244,242.54c19.12-22.55,36.31-47.08,57.51-67.45,29.51-28.35,64.47-42,106.1-25.65,42.57,16.74,67.4,47,73.27,92.51,3.37,26.12,6.52,52.26,9.83,78.38.54,4.28,1.35,8.53,4.11,12.52,1.94-24,5.3-48.05,5.5-72.1.39-45.24,24.35-76.33,57.92-102.13,17.47-13.42,36.59-23.79,59.12-26,32.37-3.2,58.74,9,80.77,31.87,4.83,5,9.66,10.3,13.27,16.2C728.77,209.09,752.08,231,781.23,247c18.67,10.29,31.56,26.06,39.84,45.65,16.84,39.8-3,104.29-41,132.88-34.3,25.83-72.26,42.27-115.55,45.27-6,.41-11.88,2-17.43,2.92,30.62,1.3,61.6,1,92.18,4.31,42.92,4.7,77.94,23.46,95.83,65.51,3.45,8.11,5.89,17.35,5.93,26.07.09,20.45-.91,41.29-7.36,60.86-7.11,21.58-21.75,35.51-38.56,49.18-17.07,13.87-26.95,39.24-36.65,58.31a123.77,123.77,0,0,1-44.06,48.8c-32.9,21.11-66.15,16.78-97.55-3.33C587.55,764.69,565.39,738.3,549,708c-7.26-13.38-9.27-29.65-13.4-44.68-2.82-10.26-5.17-20.64-8.09-32.47-1.61,2-2.71,2.8-2.71,3.55-.13,45,2,89.62,18.88,132.28,8.4,21.23,21.55,38.67,38.33,53.71,12,10.75,15.2,23.53,10.83,39.1-2.24,8-6,9.3-13.39,7.87-40.15-7.74-64.17-34.52-81.76-68.83-20.31-39.63-25.56-82.06-23-125.95,1.27-21.36,2-42.75,2.94-64.13.13-3,0-6.11,0-9.16Z"/></svg>